<svg width="357" height="329" viewBox="0 0 357 329" fill="none" xmlns="http://www.w3.org/2000/svg">
<path d="M245.134 135.884C220.467 119.182 189.389 116.221 161.998 127.969C134.608 139.716 115.33 164.274 110.433 193.656L98.6238 264.458C96.6645 276.203 98.5025 288.017 103.933 298.612C109.366 309.209 117.885 317.593 128.571 322.866C139.259 328.13 151.106 329.779 162.833 327.638C174.559 325.496 185.061 319.759 193.202 311.051L193.746 310.465C214.327 288.776 243.212 276.506 273.132 276.77C280.849 276.838 288.349 275.33 295.291 272.352C299.066 270.733 302.68 268.676 306.075 266.206C315.71 259.189 322.681 249.468 326.236 238.094C329.787 226.723 329.587 214.769 325.654 203.525C321.722 192.281 314.431 182.809 304.568 176.128L245.134 135.884ZM84.3743 204.745C93.2272 196.134 97.6186 184.148 96.7382 170.997C95.902 158.481 90.3229 146.339 81.026 136.806C71.7304 127.282 59.7292 121.399 47.231 120.239C34.103 119.022 22.0019 123.098 13.169 131.71C-4.60861 149.016 -3.10516 179.486 16.5291 199.645C32.1837 215.678 54.6783 220.39 72.1604 212.893C76.6991 210.953 80.8401 208.19 84.3743 204.745ZM134.836 131.601C161.445 120.189 172.524 86.2608 159.533 55.9706C146.539 25.6727 114.319 10.3096 87.7102 21.7219C61.1037 33.133 50.0291 67.0644 63.0234 97.3623C76.0145 127.653 108.229 143.012 134.836 131.601ZM223.965 109.353L223.968 109.352C228.546 108.964 233.033 107.842 237.255 106.028C256.66 97.7054 269.519 75.4828 267.434 50.6995C266.235 36.4332 260.3 23.3501 250.723 13.8629C240.701 3.92933 227.937 -0.927245 214.783 0.187592C201.625 1.30316 189.854 8.23989 181.634 19.7178C173.781 30.6817 170.12 44.5782 171.324 58.8421C173.858 88.9358 197.473 111.595 223.965 109.353ZM322.841 59.3564L322.83 59.352C298.672 53.6783 273.745 71.3187 267.265 98.6844C260.803 126.053 275.186 152.953 299.321 158.649C308.125 160.729 317.035 159.707 325.115 156.241C339.2 150.2 350.772 136.734 354.902 119.325C361.361 91.9564 346.981 65.0553 322.841 59.3557L322.841 59.3564Z" fill="#E47537"/>
</svg>
